<?xml version="1.0" encoding="UTF-8"?>
<svg version="1.1" xmlns="http://www.w3.org/2000/svg" width="500" height="500">
<path d="M0 0 C165 0 330 0 500 0 C500 165 500 330 500 500 C335 500 170 500 0 500 C0 335 0 170 0 0 Z " fill="#FEFEFE" transform="translate(0,0)"/>
<path d="M0 0 C28.38 0 56.76 0 86 0 C92.50934416 15.62242598 95.24702158 32.93707198 89.1875 49.28515625 C88.795625 50.18105469 88.40375 51.07695312 88 52 C87.649375 52.80308594 87.29875 53.60617187 86.9375 54.43359375 C78.90766762 70.52113987 63.92082619 80.22329962 47.59765625 86.2578125 C25.09879279 93.12512835 -2.42780037 90.48400655 -23.68896484 80.68066406 C-27.9525412 79.42492237 -31.46573943 81.05330663 -35.35546875 82.84765625 C-36.14244141 83.20537109 -36.92941406 83.56308594 -37.74023438 83.93164062 C-38.95163086 84.49141602 -38.95163086 84.49141602 -40.1875 85.0625 C-41.80445378 85.80673128 -43.42287689 86.54778111 -45.04296875 87.28515625 C-45.75477295 87.61394775 -46.46657715 87.94273926 -47.19995117 88.28149414 C-49 89 -49 89 -51 89 C-59.00397019 72.33193836 -61.29970277 53.96948644 -63.8125 35.8125 C-63.9364917 34.94238281 -64.0604834 34.07226562 -64.18823242 33.17578125 C-65.19423098 25.29978371 -65 18.13581527 -65 10 C-54.77 10 -44.54 10 -34 10 C-33.4225 12.289375 -32.845 14.57875 -32.25 16.9375 C-30.67929028 22.91338907 -28.90412007 28.51783649 -26 34 C-25.58105469 34.79664063 -25.16210938 35.59328125 -24.73046875 36.4140625 C-17.93517131 48.50707117 -8.50857911 58.18815823 4.75 62.9375 C14.34145855 65.36591068 24.38596486 65.53708286 33.046875 60.41796875 C37.875132 56.91265417 40.10661779 52.58547751 42 47 C42.62660033 39.23015589 41.78342808 31.10219648 36.77734375 24.8046875 C28.81758436 16.72247027 18.76570452 11.36657823 8.88427734 6.02880859 C5.89672729 4.3976171 2.94989115 2.69819089 0 1 C0 0.67 0 0.34 0 0 Z " fill="#010101" transform="translate(320,270)"/>
<path d="M0 0 C28.38 0 56.76 0 86 0 C92.34311477 14.27200824 95.3674458 31.08452423 90.10546875 46.42578125 C82.46708493 64.21268916 72.29977378 76.41657561 53.94140625 83.9375 C52.97074219 84.288125 52.00007813 84.63875 51 85 C49.40478516 85.5878125 49.40478516 85.5878125 47.77734375 86.1875 C26.09563604 92.86592975 -1.27861105 91.07904127 -21.7890625 81.23828125 C-27.03783082 79.21412121 -30.5077143 80.71797918 -35.453125 82.84765625 C-37.055307 83.5789153 -38.65422002 84.3173737 -40.25 85.0625 C-41.85786894 85.80664821 -43.46717822 86.54769469 -45.078125 87.28515625 C-45.78356445 87.61394775 -46.48900391 87.94273926 -47.21582031 88.28149414 C-49 89 -49 89 -51 89 C-51.78265953 87.25525701 -52.55028432 85.50377059 -53.3125 83.75 C-53.95638672 82.28820312 -53.95638672 82.28820312 -54.61328125 80.796875 C-58.13186958 71.82631064 -59.61655579 62.1659748 -61.0625 52.6875 C-61.31628418 51.049021 -61.31628418 51.049021 -61.57519531 49.37744141 C-61.906954 47.22037074 -62.23568647 45.06283194 -62.56103516 42.90478516 C-62.93055504 40.4595418 -63.312636 38.01679767 -63.69921875 35.57421875 C-65.0060103 26.79739888 -65 19.08411719 -65 10 C-54.77 10 -44.54 10 -34 10 C-32.515 15.94 -32.515 15.94 -31 22 C-30.00222871 24.77102559 -29.01117171 27.39137302 -27.8125 30.0625 C-27.51134277 30.73732422 -27.21018555 31.41214844 -26.89990234 32.10742188 C-20.64244634 45.61864172 -11.02254658 56.4681697 3 62 C11.56439594 64.84145847 21.57558449 65.81771766 30.125 62.375 C35.61791798 59.43236537 39.23053333 54.97538487 41.4921875 49.11328125 C43.18233872 42.07965195 42.91819425 34.9978779 39.18359375 28.73046875 C31.76222195 17.88008028 20.24969098 12.24547304 9 6 C8.04480469 5.46632813 7.08960938 4.93265625 6.10546875 4.3828125 C4.073194 3.24985933 2.03849408 2.12171103 0 1 C0 0.67 0 0.34 0 0 Z " fill="#010101" transform="translate(153,270)"/>
<path d="M0 0 C6.09893116 2.38140084 10.24132737 0.81695372 16.1875 -1.375 C18.51717139 -2.11578315 20.85059927 -2.84484867 23.1875 -3.5625 C24.26 -3.90667969 25.3325 -4.25085938 26.4375 -4.60546875 C29.1875 -5.375 29.1875 -5.375 32.1875 -5.375 C40.63098568 10.82620602 40.3457234 29.02781524 40.25 46.8125 C40.24497294 48.44856633 40.24041217 50.08463417 40.23632812 51.72070312 C40.22628213 55.68887048 40.20669053 59.65682476 40.1875 63.625 C31.9375 63.625 23.6875 63.625 15.1875 63.625 C14.1975 60.655 13.2075 57.685 12.1875 54.625 C7.20071904 41.60887047 1.4636087 28.95989911 -11.8125 22.625 C-20.58430593 19.50323416 -29.78288177 17.72312527 -38.625 21.3125 C-44.45077486 24.261349 -48.21370162 27.83432848 -50.3046875 34.19140625 C-52.10684905 42.82791892 -51.62490902 51.12792364 -46.8125 58.625 C-38.08000356 70.97094324 -23.90338088 76.9626407 -10.8125 83.625 C-10.8125 83.955 -10.8125 84.285 -10.8125 84.625 C-38.5325 84.625 -66.2525 84.625 -94.8125 84.625 C-101.50874099 68.55402163 -105.5843156 51.0808022 -100.25 33.75 C-99.12890625 31.109375 -99.12890625 31.109375 -97.8125 28.625 C-97.32652344 27.70203125 -96.84054688 26.7790625 -96.33984375 25.828125 C-87.14142714 10.08426299 -73.68917874 1.55695214 -56.57421875 -3.4296875 C-38.82643325 -7.88967098 -16.9344322 -7.1828631 0 0 Z " fill="#020202" transform="translate(196.8125,145.375)"/>
<path d="M0 0 C6.06415182 2.3927828 10.20719762 0.80649552 16.125 -1.375 C18.45467139 -2.11578315 20.78809927 -2.84484867 23.125 -3.5625 C24.1975 -3.90667969 25.27 -4.25085938 26.375 -4.60546875 C29.125 -5.375 29.125 -5.375 32.125 -5.375 C40.60662439 11.00330917 40.30316594 30.43071426 40.1875 48.4375 C40.18246684 49.82356606 40.1779072 51.20963393 40.17382812 52.59570312 C40.16217953 55.93884975 40.14582429 59.28190011 40.125 62.625 C36.00013162 62.71176908 31.87549616 62.76531295 27.75 62.8125 C26.574375 62.83763672 25.39875 62.86277344 24.1875 62.88867188 C22.50527344 62.90317383 22.50527344 62.90317383 20.7890625 62.91796875 C19.23372803 62.94153442 19.23372803 62.94153442 17.64697266 62.96557617 C16.81472168 62.85318604 15.9824707 62.7407959 15.125 62.625 C13.2930627 59.87709404 12.71224327 58.40627348 11.9375 55.3125 C8.01346809 41.74769935 1.46744369 30.75291893 -10.875 23.625 C-16.41665651 20.65625544 -21.25565135 20.33335969 -27.4375 20.25 C-28.15808594 20.23598145 -28.87867188 20.22196289 -29.62109375 20.20751953 C-35.97897204 20.2642863 -40.61594686 21.7766838 -45.625 25.875 C-51.10886824 32.57750562 -51.47927785 38.34474091 -51.28515625 46.89453125 C-50.43336806 54.64174765 -46.7519287 60.68222294 -41.0625 65.91796875 C-31.8876425 73.07763433 -21.1676804 78.27223675 -10.875 83.625 C-10.875 83.955 -10.875 84.285 -10.875 84.625 C-38.595 84.625 -66.315 84.625 -94.875 84.625 C-101.99246562 68.01758022 -105.71869594 48.99265186 -99.1484375 31.35546875 C-92.02128759 16.07363505 -81.45780516 6.13231765 -65.875 -0.375 C-45.65640502 -7.70804777 -20.06674288 -8.54747017 0 0 Z " fill="#020202" transform="translate(363.875,145.375)"/>
<path d="M0 0 C10.34052758 -0.36930456 10.34052758 -0.36930456 13.34375 1.3125 C15 3 15 3 15.25 6.1875 C15.1675 7.115625 15.085 8.04375 15 9 C13.02 9.99 13.02 9.99 11 11 C11.28875 11.55429688 11.5775 12.10859375 11.875 12.6796875 C12.431875 13.76636719 12.431875 13.76636719 13 14.875 C13.37125 15.59429687 13.7425 16.31359375 14.125 17.0546875 C15 19 15 19 15 21 C14.01 21 13.02 21 12 21 C11.01 18.03 10.02 15.06 9 12 C7.02 12 5.04 12 3 12 C3 14.97 3 17.94 3 21 C2.01 21 1.02 21 0 21 C0 14.07 0 7.14 0 0 Z " fill="#282828" transform="translate(380,238)"/>
<path d="M0 0 C10 0 10 0 13.125 1.6875 C15 4 15 4 15.3125 6.75 C15.1578125 7.86375 15.1578125 7.86375 15 9 C13.02 9.99 13.02 9.99 11 11 C12.32 14.3 13.64 17.6 15 21 C13.68 20.67 12.36 20.34 11 20 C9.47835901 17.10888212 9 15.28176588 9 12 C7.02 12 5.04 12 3 12 C3 14.97 3 17.94 3 21 C2.01 21 1.02 21 0 21 C0 14.07 0 7.14 0 0 Z " fill="#222222" transform="translate(309,238)"/>
<path d="M0 0 C0.99 0 1.98 0 3 0 C5.0078125 2.58984375 5.0078125 2.58984375 7.125 5.9375 C9.31882086 9.65459394 9.31882086 9.65459394 12 13 C12.33 9.04 12.66 5.08 13 1 C13.99 1 14.98 1 16 1 C16 7.6 16 14.2 16 21 C15.01 21 14.02 21 13 21 C11.29589827 18.69254619 9.79183756 16.44432809 8.3125 14 C7.68891602 12.99839844 7.68891602 12.99839844 7.05273438 11.9765625 C6.02555776 10.32363462 5.01152664 8.66255112 4 7 C3.67 11.62 3.34 16.24 3 21 C2.01 21 1.02 21 0 21 C0 14.07 0 7.14 0 0 Z " fill="#242424" transform="translate(225,238)"/>
<path d="M0 0 C1.89355469 0.26806641 1.89355469 0.26806641 4 1 C5.00488281 2.62646484 5.00488281 2.62646484 5.703125 4.7109375 C5.9609375 5.46117187 6.21875 6.21140625 6.484375 6.984375 C6.73703125 7.77328125 6.9896875 8.5621875 7.25 9.375 C7.518125 10.15617188 7.78625 10.93734375 8.0625 11.7421875 C9.15562725 14.99926054 10 17.53649703 10 21 C9.01 20.67 8.02 20.34 7 20 C6.67 18.35 6.34 16.7 6 15 C3.03 15 0.06 15 -3 15 C-3.33 16.98 -3.66 18.96 -4 21 C-4.99 21 -5.98 21 -7 21 C-6.26951699 16.31196344 -4.63363115 12.09114445 -2.9375 7.6875 C-2.51500977 6.57665039 -2.51500977 6.57665039 -2.08398438 5.44335938 C-1.39281425 3.62757345 -0.69688311 1.81360101 0 0 Z " fill="#131313" transform="translate(161,238)"/>
<path d="M0 0 C1.32 0 2.64 0 4 0 C5.1721449 2.95619219 6.33677476 5.91528789 7.5 8.875 C7.83386719 9.71675781 8.16773438 10.55851563 8.51171875 11.42578125 C8.98544922 12.63427734 8.98544922 12.63427734 9.46875 13.8671875 C9.90864258 14.98262939 9.90864258 14.98262939 10.35742188 16.12060547 C11 18 11 18 11 20 C10.01 20 9.02 20 8 20 C7.34 18.35 6.68 16.7 6 15 C3.36 15 0.72 15 -2 15 C-2.99 17.475 -2.99 17.475 -4 20 C-4.99 19.67 -5.98 19.34 -7 19 C-4.69 12.73 -2.38 6.46 0 0 Z " fill="#212121" transform="translate(290,239)"/>
<path d="M0 0 C2.29296875 -0.02734375 2.29296875 -0.02734375 5 1 C6.57184632 3.65017855 7.40916762 6.50345738 8.3125 9.4375 C8.57611328 10.22705078 8.83972656 11.01660156 9.11132812 11.83007812 C11 17.58439529 11 17.58439529 11 20 C10.01 20 9.02 20 8 20 C7.67 18.02 7.34 16.04 7 14 C4.03 14 1.06 14 -2 14 C-2.66 15.98 -3.32 17.96 -4 20 C-4.66 20 -5.32 20 -6 20 C-4.63125844 13.04223041 -2.5466871 6.61396893 0 0 Z " fill="#202020" transform="translate(361,239)"/>
<path d="M0 0 C2.29296875 -0.02734375 2.29296875 -0.02734375 5 1 C6.57184632 3.65017855 7.40916762 6.50345738 8.3125 9.4375 C8.57611328 10.22705078 8.83972656 11.01660156 9.11132812 11.83007812 C11 17.58439529 11 17.58439529 11 20 C10.01 20 9.02 20 8 20 C7.67 18.02 7.34 16.04 7 14 C4.03 14 1.06 14 -2 14 C-2.66 15.98 -3.32 17.96 -4 20 C-4.66 20 -5.32 20 -6 20 C-4.63125844 13.04223041 -2.5466871 6.61396893 0 0 Z " fill="#202020" transform="translate(206,239)"/>
<path d="M0 0 C0.99 0 1.98 0 3 0 C3.33 3.3 3.66 6.6 4 10 C4.54269531 9.278125 5.08539063 8.55625 5.64453125 7.8125 C6.35996094 6.884375 7.07539063 5.95625 7.8125 5 C8.52019531 4.071875 9.22789062 3.14375 9.95703125 2.1875 C10.63121094 1.465625 11.30539062 0.74375 12 0 C12.99 0 13.98 0 15 0 C13.93102496 2.30240777 12.96375688 4.04012631 11.25 5.9375 C10.8375 6.618125 10.425 7.29875 10 8 C10.50886646 10.4091705 10.50886646 10.4091705 12 13 C12.70917581 14.43708456 13.41746524 15.87460678 14.125 17.3125 C14.74803935 18.54266164 15.37237545 19.77217138 16 21 C13.29561004 20.63594751 12.25593617 20.31857318 10.515625 18.15234375 C10.09796875 17.42144531 9.6803125 16.69054687 9.25 15.9375 C8.82203125 15.20402344 8.3940625 14.47054687 7.953125 13.71484375 C7.63859375 13.14894531 7.3240625 12.58304688 7 12 C6.01 12.66 5.02 13.32 4 14 C3.26393501 17.56769552 3.26393501 17.56769552 3 21 C2.01 21 1.02 21 0 21 C0 14.07 0 7.14 0 0 Z " fill="#262626" transform="translate(332,238)"/>
<path d="M0 0 C0.99 0 1.98 0 3 0 C3 2.97 3 5.94 3 9 C6.63 9 10.26 9 14 9 C14 6.36 14 3.72 14 1 C14.66 1 15.32 1 16 1 C16 7.6 16 14.2 16 21 C15.34 21 14.68 21 14 21 C14 18.03 14 15.06 14 12 C10.37 12 6.74 12 3 12 C3 14.97 3 17.94 3 21 C2.01 21 1.02 21 0 21 C0 14.07 0 7.14 0 0 Z " fill="#303030" transform="translate(129,238)"/>
<path d="M0 0 C2.375 1.3125 2.375 1.3125 4 3 C4 3.99 4 4.98 4 6 C3.01 6 2.02 6 1 6 C0.67 5.34 0.34 4.68 0 4 C-1.98 4 -3.96 4 -6 4 C-6 5.32 -6 6.64 -6 8 C-5.37351562 8.18175781 -4.74703125 8.36351562 -4.1015625 8.55078125 C-3.28429687 8.80214844 -2.46703125 9.05351562 -1.625 9.3125 C-0.81289062 9.55613281 -0.00078125 9.79976562 0.8359375 10.05078125 C3 11 3 11 5 14 C4.8125 16.5625 4.8125 16.5625 4 19 C0.33952058 21.44031962 -2.74105256 21.73696072 -7 21 C-9.5 19 -9.5 19 -11 17 C-10.01 16.67 -9.02 16.34 -8 16 C-7.34 16.66 -6.68 17.32 -6 18 C-2.91652174 18.16681109 -2.91652174 18.16681109 0 18 C0.33 16.68 0.66 15.36 1 14 C0.37351562 13.80664062 -0.25296875 13.61328125 -0.8984375 13.4140625 C-1.71570313 13.15367187 -2.53296875 12.89328125 -3.375 12.625 C-4.59316406 12.24214844 -4.59316406 12.24214844 -5.8359375 11.8515625 C-8 11 -8 11 -10 9 C-10.375 6.0625 -10.375 6.0625 -10 3 C-7.08783566 -0.36018962 -4.28391942 -0.53548993 0 0 Z " fill="#242424" transform="translate(116,238)"/>
<path d="M0 0 C2.375 1.3125 2.375 1.3125 4 3 C4 3.99 4 4.98 4 6 C3.34 6 2.68 6 2 6 C1.67 5.34 1.34 4.68 1 4 C-1.31 4 -3.62 4 -6 4 C-6 5.32 -6 6.64 -6 8 C-5.37351562 8.19335938 -4.74703125 8.38671875 -4.1015625 8.5859375 C-3.28429687 8.84632813 -2.46703125 9.10671875 -1.625 9.375 C-0.81289063 9.63023437 -0.00078125 9.88546875 0.8359375 10.1484375 C3 11 3 11 5 13 C5.375 15.4375 5.375 15.4375 5 18 C3.21302449 20.15926208 1.82775588 20.87841815 -0.94140625 21.28515625 C-4.07557733 21.41791119 -6.3701844 21.43299823 -9 19.625 C-10 18 -10 18 -10 16 C-9.505 16.33 -9.01 16.66 -8.5 17 C-4.90909106 18.43636358 -1.85543873 18.12851462 2 18 C1.88803359 16.03550978 1.88803359 16.03550978 1 14 C-1.2861982 12.86069564 -1.2861982 12.86069564 -4 12.125 C-6.7265625 11.1328125 -6.7265625 11.1328125 -9 10 C-10.375 7 -10.375 7 -10 4 C-7.28051212 -0.13362158 -4.78982631 -0.69851634 0 0 Z " fill="#212121" transform="translate(271,238)"/>
<path d="M0 0 C0.99 0 1.98 0 3 0 C4.32 2.31 5.64 4.62 7 7 C9.77000825 3.67913229 9.77000825 3.67913229 12 0 C12.99 0.33 13.98 0.66 15 1 C14.65066406 1.53367188 14.30132812 2.06734375 13.94140625 2.6171875 C10.3919704 8.42901165 9.1558892 13.21173403 9 20 C8.01 20 7.02 20 6 20 C5.98582031 19.3709375 5.97164062 18.741875 5.95703125 18.09375 C5.62767506 12.18314167 4.53739198 8.40296682 1.05859375 3.59375 C0 2 0 2 0 0 Z " fill="#1D1D1D" transform="translate(178,239)"/>
<path d="M0 0 C1.32 0.33 2.64 0.66 4 1 C5.125 5.75 5.125 5.75 4 8 C4.27942455 9.67654729 4.60828247 11.34608154 5 13 C-1.75 13.125 -1.75 13.125 -4 12 C-3.52309796 10.37433394 -3.04340334 8.74948689 -2.5625 7.125 C-2.29566406 6.22007812 -2.02882812 5.31515625 -1.75390625 4.3828125 C-1 2 -1 2 0 0 Z " fill="#2D2D2D" transform="translate(161,238)"/>
<path d="M0 0 C2.73828125 0.0234375 2.73828125 0.0234375 5.125 0.375 C7.61141318 3.08745074 8.46102383 5.78952866 9.125 9.375 C8.135 9.375 7.145 9.375 6.125 9.375 C5.465 7.725 4.805 6.075 4.125 4.375 C1.485 4.375 -1.155 4.375 -3.875 4.375 C-4.535 6.025 -5.195 7.675 -5.875 9.375 C-6.865 9.045 -7.855 8.715 -8.875 8.375 C-5.45874384 0.2056918 -5.45874384 0.2056918 0 0 Z " fill="#121212" transform="translate(291.875,249.625)"/>
<path d="M0 0 C6.15234375 -0.09765625 6.15234375 -0.09765625 8 0 C9 1 9 1 9.0625 3.5625 C9.041875 4.366875 9.02125 5.17125 9 6 C6.04335481 7.4783226 3.25770263 7.06032783 0 7 C0 4.69 0 2.38 0 0 Z " fill="#F9F9F9" transform="translate(383,241)"/>
<path d="M0 0 C2.64 0 5.28 0 8 0 C8.625 2.375 8.625 2.375 9 5 C7 7 7 7 3.375 7.125 C2.26125 7.08375 1.1475 7.0425 0 7 C0 4.69 0 2.38 0 0 Z " fill="#FAFAFA" transform="translate(312,241)"/>
<path d="M0 0 C0.73046875 1.84765625 0.73046875 1.84765625 1.1875 4.0625 C1.34605469 4.79597656 1.50460937 5.52945312 1.66796875 6.28515625 C1.77753906 6.85105469 1.88710938 7.41695313 2 8 C1.01 8 0.02 8 -1 8 C-1.33 6.02 -1.66 4.04 -2 2 C-4.97 2 -7.94 2 -11 2 C-11.66 3.98 -12.32 5.96 -13 8 C-13.66 8 -14.32 8 -15 8 C-14.25 2.25 -14.25 2.25 -12 0 C-9.94140625 -0.44921875 -9.94140625 -0.44921875 -7.5625 -0.6875 C-6.78003906 -0.77386719 -5.99757813 -0.86023438 -5.19140625 -0.94921875 C-3 -1 -3 -1 0 0 Z " fill="#101010" transform="translate(370,251)"/>
<path d="M0 0 C0.73046875 1.84765625 0.73046875 1.84765625 1.1875 4.0625 C1.34605469 4.79597656 1.50460938 5.52945312 1.66796875 6.28515625 C1.77753906 6.85105469 1.88710937 7.41695313 2 8 C1.01 8 0.02 8 -1 8 C-1.33 6.02 -1.66 4.04 -2 2 C-4.97 2 -7.94 2 -11 2 C-11.66 3.98 -12.32 5.96 -13 8 C-13.66 8 -14.32 8 -15 8 C-14.25 2.25 -14.25 2.25 -12 0 C-9.94140625 -0.44921875 -9.94140625 -0.44921875 -7.5625 -0.6875 C-6.78003906 -0.77386719 -5.99757812 -0.86023438 -5.19140625 -0.94921875 C-3 -1 -3 -1 0 0 Z " fill="#101010" transform="translate(215,251)"/>
<path d="M0 0 C0.66 0 1.32 0 2 0 C2 6.6 2 13.2 2 20 C1.01 20 0.02 20 -1 20 C-1.66 18.35 -2.32 16.7 -3 15 C-2.01 15 -1.02 15 0 15 C0 10.05 0 5.1 0 0 Z " fill="#050505" transform="translate(239,239)"/>
<path d="M0 0 C2.375 1.3125 2.375 1.3125 4 3 C4 3.99 4 4.98 4 6 C3.01 6 2.02 6 1 6 C0.67 5.34 0.34 4.68 0 4 C-3.5219721 3.91995518 -6.61981469 3.95994298 -10 5 C-7.6853348 -0.12533009 -5.56888064 -0.44551045 0 0 Z " fill="#2E2E2E" transform="translate(116,238)"/>
<path d="M0 0 C0.33 0 0.66 0 1 0 C1 4.95 1 9.9 1 15 C-4 14 -4 14 -6.3125 11.125 C-8 8 -8 8 -8 5 C-7.34 5 -6.68 5 -6 5 C-4.1411321 7.20810975 -2.62305722 9.6081262 -1 12 C-0.67 8.04 -0.34 4.08 0 0 Z " fill="#414141" transform="translate(238,239)"/>
<path d="M0 0 C0.66 0 1.32 0 2 0 C2 6.6 2 13.2 2 20 C1.34 20 0.68 20 0 20 C0 16.7 0 13.4 0 10 C-0.66 9.67 -1.32 9.34 -2 9 C-1.34 9 -0.68 9 0 9 C0 6.03 0 3.06 0 0 Z " fill="#000000" transform="translate(143,239)"/>
<path d="M0 0 C2 1 2 1 2.6328125 2.84765625 C2.79523438 3.57855469 2.95765625 4.30945313 3.125 5.0625 C3.29257813 5.79597656 3.46015625 6.52945313 3.6328125 7.28515625 C3.75398437 7.85105469 3.87515625 8.41695312 4 9 C1.69 9 -0.62 9 -3 9 C-2.01 6.03 -1.02 3.06 0 0 Z " fill="#E4E4E4" transform="translate(162,242)"/>
<path d="M0 0 C2.6855594 2.6855594 3.06049974 5.37621328 4 9 C1.69 9 -0.62 9 -3 9 C-2.01 6.03 -1.02 3.06 0 0 Z " fill="#E8E8E8" transform="translate(363,242)"/>
<path d="M0 0 C2.6855594 2.6855594 3.06049974 5.37621328 4 9 C1.69 9 -0.62 9 -3 9 C-2.01 6.03 -1.02 3.06 0 0 Z " fill="#E8E8E8" transform="translate(208,242)"/>
<path d="M0 0 C0.66 0 1.32 0 2 0 C2.66 2.97 3.32 5.94 4 9 C2.02 9 0.04 9 -2 9 C-1.34 6.03 -0.68 3.06 0 0 Z " fill="#E7E7E7" transform="translate(291,242)"/>
<path d="M0 0 C3.32820054 -0.22692276 5.41801336 -0.32162419 8.375 1.3125 C10 3 10 3 10 6 C9.34 6 8.68 6 8 6 C7.67 5.34 7.34 4.68 7 4 C4.36 4 1.72 4 -1 4 C-0.67 2.68 -0.34 1.36 0 0 Z " fill="#272727" transform="translate(265,238)"/>
<path d="M0 0 C0 1.98 0 3.96 0 6 C-0.99 5.67 -1.98 5.34 -3 5 C-3.6875 2.9375 -3.6875 2.9375 -4 1 C-6.64 0.67 -9.28 0.34 -12 0 C-12 -0.33 -12 -0.66 -12 -1 C-7.28400182 -1.92470553 -4.32734391 -2.22923777 0 0 Z " fill="#2C2C2C" transform="translate(395,241)"/>
<path d="M0 0 C0.33 0 0.66 0 1 0 C1.33 1.98 1.66 3.96 2 6 C2.99 6.33 3.98 6.66 5 7 C5 7.66 5 8.32 5 9 C2.03 8.505 2.03 8.505 -1 8 C-1.625 5.125 -1.625 5.125 -2 2 C-1.34 1.34 -0.68 0.68 0 0 Z " fill="#0D0D0D" transform="translate(263,240)"/>
<path d="M0 0 C0.99 0 1.98 0 3 0 C4.65 2.97 6.3 5.94 8 9 C7.01 9.33 6.02 9.66 5 10 C4.16121545 8.71186658 3.32913217 7.41936744 2.5 6.125 C2.0359375 5.40570313 1.571875 4.68640625 1.09375 3.9453125 C0 2 0 2 0 0 Z " fill="#232323" transform="translate(178,239)"/>
<path d="M0 0 C0.495 0.309375 0.99 0.61875 1.5 0.9375 C4.97986781 2.41644382 8.24028509 2.62402851 12 3 C11.67 3.66 11.34 4.32 11 5 C3.5340751 5.36717663 3.5340751 5.36717663 1 3.625 C0 2 0 2 0 0 Z " fill="#0C0C0C" transform="translate(261,254)"/>
<path d="M0 0 C3.69900008 0.88776002 7.34550461 1.94581864 11 3 C11 3.66 11 4.32 11 5 C4.61764706 5.49095023 4.61764706 5.49095023 1.5625 3.0625 C0 1 0 1 0 0 Z " fill="#121212" transform="translate(105,254)"/>
<path d="M0 0 C0.433125 0.639375 0.86625 1.27875 1.3125 1.9375 C2.91239177 4.26746003 2.91239177 4.26746003 6 5 C6 5.99 6 6.98 6 8 C1.25 7.25 1.25 7.25 -1 5 C-0.625 2.375 -0.625 2.375 0 0 Z " fill="#151515" transform="translate(107,242)"/>
<path d="M0 0 C0.99 0 1.98 0 3 0 C4.32 2.64 5.64 5.28 7 8 C3 7 3 7 1.25 4.5625 C0 2 0 2 0 0 Z " fill="#191919" transform="translate(341,251)"/>
<path d="M0 0 C0.99 0.33 1.98 0.66 3 1 C4.1875 4.0625 4.1875 4.0625 5 7 C4.01 7 3.02 7 2 7 C0.5393715 4.35261084 0 3.10551666 0 0 Z " fill="#1F1F1F" transform="translate(390,252)"/>
<path d="M0 0 C0.33 0 0.66 0 1 0 C1.3125 2.3125 1.3125 2.3125 1 5 C-1.5 6.8125 -1.5 6.8125 -4 8 C-3.625 6.0625 -3.625 6.0625 -3 4 C-2.34 3.67 -1.68 3.34 -1 3 C-0.67 2.01 -0.34 1.02 0 0 Z " fill="#323232" transform="translate(323,242)"/>
</svg>
